<svg xmlns="http://www.w3.org/2000/svg" width="473" height="473">
  <g fill="none" fill-rule="evenodd">
    <path fill="#000" d="M0 0h473v473H0z"/>
    <g fill="#00FF14" fill-rule="nonzero">
      <path d="M92.488 218.12V40h104.92v20.008H113.96v59.048h77.104v20.008h-76.616v79.056zM271.4 218.12V40h54.9c10.573 0 19.845 2.155 27.816 6.466 7.97 4.31 14.152 10.289 18.544 17.934 4.392 7.645 6.588 16.592 6.588 26.84 0 12.037-3.09 22.367-9.272 30.988-6.181 8.621-14.396 14.64-24.644 18.056l36.356 77.836h-24.156l-34.892-75.64h-29.524v75.64H271.4Zm21.716-95.404H326.3c9.11 0 16.43-2.887 21.96-8.662 5.53-5.775 8.296-13.38 8.296-22.814 0-9.597-2.765-17.243-8.296-22.936-5.53-5.693-12.85-8.54-21.96-8.54h-33.184v62.952ZM92 430.12V252h50.508c10.899 0 20.211 1.83 27.938 5.49s13.664 8.947 17.812 15.86c4.148 6.913 6.222 15.169 6.222 24.766 0 6.019-1.301 11.712-3.904 17.08-2.603 5.368-6.263 9.923-10.98 13.664-4.717 3.741-10.167 6.263-16.348 7.564v.732c6.995.813 13.135 3.253 18.422 7.32 5.287 4.067 9.435 9.231 12.444 15.494 3.01 6.263 4.514 13.135 4.514 20.618 0 10.085-2.115 18.87-6.344 26.352-4.23 7.483-10.248 13.217-18.056 17.202-7.808 3.985-17.161 5.978-28.06 5.978H92Zm21.472-19.764h30.256c10.248 0 18.34-2.725 24.278-8.174 5.937-5.45 8.906-12.891 8.906-22.326 0-9.76-2.969-17.69-8.906-23.79-5.937-6.1-14.03-9.15-24.278-9.15h-30.256v63.44Zm0-82.472h28.792c9.435 0 16.877-2.521 22.326-7.564 5.45-5.043 8.174-11.875 8.174-20.496 0-8.621-2.684-15.453-8.052-20.496-5.368-5.043-12.77-7.564-22.204-7.564h-29.036v56.12ZM322.884 432.56c-11.387 0-21.35-2.033-29.89-6.1s-15.128-9.963-19.764-17.69c-4.636-7.727-6.954-16.877-6.954-27.45h21.96c0 9.923 3.172 17.69 9.516 23.302 6.344 5.612 14.721 8.418 25.132 8.418 10.085 0 18.137-2.928 24.156-8.784 6.019-5.856 9.028-13.501 9.028-22.936 0-7.157-1.911-13.38-5.734-18.666-3.823-5.287-9.313-8.906-16.47-10.858l-27.084-7.564c-11.224-3.253-20.049-9.069-26.474-17.446-6.425-8.377-9.638-18.26-9.638-29.646 0-9.435 2.115-17.73 6.344-24.888 4.23-7.157 10.167-12.729 17.812-16.714 7.645-3.985 16.43-5.978 26.352-5.978 10.085 0 18.991 1.993 26.718 5.978 7.727 3.985 13.786 9.516 18.178 16.592 4.392 7.076 6.588 15.25 6.588 24.522H350.7c0-8.133-2.765-14.762-8.296-19.886-5.53-5.124-12.607-7.686-21.228-7.686-8.621 0-15.616 2.562-20.984 7.686-5.368 5.124-8.052 11.753-8.052 19.886 0 6.507 1.749 12.078 5.246 16.714 3.497 4.636 8.418 7.849 14.762 9.638l27.816 7.808c11.875 3.253 21.106 9.394 27.694 18.422 6.588 9.028 9.882 19.723 9.882 32.086 0 10.41-2.237 19.439-6.71 27.084s-10.817 13.583-19.032 17.812c-8.215 4.23-17.853 6.344-28.914 6.344Z"/>
    </g>
  </g>
</svg>